<svg xmlns="http://www.w3.org/2000/svg" width="300" height="300" viewBox="0 0 300 300">
  <g id="Сгруппировать_848" data-name="Сгруппировать 848" transform="translate(-48 -108)">
    <path id="Контур_3945" data-name="Контур 3945" d="M150,0A150,150,0,1,1,0,150,150,150,0,0,1,150,0Z" transform="translate(48 108)" fill="#0001d7" opacity="0.6"/>
    <circle id="Эллипс_115" data-name="Эллипс 115" cx="135" cy="135" r="135" transform="translate(63 123)" fill="#0001d7" opacity="0.6"/>
    <circle id="Эллипс_114" data-name="Эллипс 114" cx="115" cy="115" r="115" transform="translate(83 143)" fill="#0001d7"/>
  </g>
  <g id="Сгруппировать_602" data-name="Сгруппировать 602" transform="translate(504.225 -211.514)">
    <g id="Сгруппировать_280" data-name="Сгруппировать 280" transform="translate(-369.622 332.514)">
      <path id="Контур_277" data-name="Контур 277" d="M8,80.376H52.911V54.1H8ZM45.787,68.812V56.371h4.8V78.053H37.837V56.371h5.678V68.812ZM35.514,56.371V78.053H10.271V56.371Z" transform="translate(-8 -54.1)" fill="#fff"/>
      <path id="Контур_278" data-name="Контур 278" d="M49.041,25.4V11.15h4.078L48.628,0H4.491L0,11.15H4.078v14.2H49.041ZM34.793,23.075v-16l1.652,4.078H46.718V23.075Zm.568-20.8H47.079l2.633,6.608H37.994ZM3.407,8.879,6.04,2.271H32.006L29.373,8.879ZM6.4,23.075V11.15h24.52l1.652-4.078v16Z" transform="translate(48.277 0.401)" fill="#fff"/>
    </g>
    <g id="Сгруппировать_282" data-name="Сгруппировать 282" transform="translate(-439.225 334.44)">
      <g id="Сгруппировать_281" data-name="Сгруппировать 281">
        <path id="Контур_279" data-name="Контур 279" d="M136.979,31.511V39.5h-4.331V35.639H120.331V39.5H116V31.511h1.827c3.316-4.8,3.79-12.385,3.79-18.611h13.061V31.511Zm-14.144,0h7.512V17.028h-4.467C125.61,22.1,124.933,27.247,122.835,31.511Z" transform="translate(-116 -12.9)" fill="#fff"/>
        <path id="Контур_280" data-name="Контур 280" d="M170.242,28.668c0,3.993-2.572,6.971-7.58,6.971H154V12.9h8.121c4.331,0,6.971,2.978,6.971,6.5a5.828,5.828,0,0,1-2.03,4.264A5.3,5.3,0,0,1,170.242,28.668Zm-11.911-11.64V21.7h3.857a2.22,2.22,0,0,0,2.436-2.369,2.22,2.22,0,0,0-2.436-2.369h-3.857Zm7.444,11.64a2.78,2.78,0,0,0-3.113-2.842h-4.331v5.685h4.331A2.78,2.78,0,0,0,165.775,28.668Z" transform="translate(-128.283 -12.9)" fill="#fff"/>
        <path id="Контур_281" data-name="Контур 281" d="M199.889,17.028H185V12.9h14.889ZM198.873,26.3H185V22.172h13.873Zm1.218,5.211v4.128H185V31.511Z" transform="translate(-138.304 -12.9)" fill="#fff"/>
        <path id="Контур_282" data-name="Контур 282" d="M135.025,60.9V83.639h-4.331V65.028h-8.662V83.639H117.7V60.9Z" transform="translate(-116.55 -28.416)" fill="#fff"/>
        <path id="Контур_283" data-name="Контур 283" d="M172.262,72.172c0,6.5-4.467,11.572-11.031,11.572-6.5,0-11.031-5.076-11.031-11.572S154.734,60.6,161.231,60.6C167.8,60.6,172.262,65.676,172.262,72.172Zm-4.4,0c0-4.128-2.436-7.309-6.564-7.309s-6.632,3.113-6.632,7.309c0,4.128,2.436,7.241,6.632,7.241C165.427,79.414,167.863,76.3,167.863,72.172Z" transform="translate(-127.055 -28.319)" fill="#fff"/>
        <path id="Контур_284" data-name="Контур 284" d="M205.113,76.536l3.925,1.963a10.51,10.51,0,0,1-9.407,5.346c-6.5,0-11.031-5.076-11.031-11.572S193.067,60.7,199.631,60.7a10.51,10.51,0,0,1,9.407,5.346l-3.925,1.963a6.29,6.29,0,0,0-5.549-2.978c-4.128,0-6.565,3.113-6.565,7.309,0,4.128,2.436,7.241,6.565,7.241A6.556,6.556,0,0,0,205.113,76.536Z" transform="translate(-139.468 -28.351)" fill="#fff"/>
        <path id="Контур_285" data-name="Контур 285" d="M241.577,76.127c0,4.128-2.842,7.444-7.986,7.444H225.2V60.9h4.331v7.783h4.061C238.735,68.683,241.577,72,241.577,76.127Zm-4.534,0a3.219,3.219,0,0,0-3.519-3.316h-3.993v6.7h3.993A3.27,3.27,0,0,0,237.043,76.127Zm11.1-15.227V83.639h-4.331V60.9Z" transform="translate(-151.299 -28.416)" fill="#fff"/>
        <path id="Контур_286" data-name="Контур 286" d="M284.252,60.9V83.639h-4.331V65.028H274.71c0,7.377-.271,14.889-3.722,17.528a7.4,7.4,0,0,1-5.888,1.218l.745-4.331a2.718,2.718,0,0,0,2.436-.338c2.639-2.233,2.166-10.828,2.166-18.2Z" transform="translate(-164.196 -28.416)" fill="#fff"/>
        <path id="Контур_287" data-name="Контур 287" d="M307.894,74.367l-1.963,2.369v6.9H301.6V60.9h4.331v9.136l7.715-9.136h5.685L310.8,70.984l9,12.655h-5.279Z" transform="translate(-175.995 -28.416)" fill="#fff"/>
        <path id="Контур_288" data-name="Контур 288" d="M351.96,60.9V83.639h-4.331V68.886L338.7,83.639h-4.2V60.9h4.331V75.653L347.764,60.9h4.2Z" transform="translate(-186.629 -28.416)" fill="#fff"/>
      </g>
    </g>
  </g>
</svg>
