<svg id="Сгруппировать_609" data-name="Сгруппировать 609" xmlns="http://www.w3.org/2000/svg" width="369.782" height="108.171" viewBox="0 0 369.782 108.171">
  <g id="Сгруппировать_280" data-name="Сгруппировать 280">
    <path id="Контур_277" data-name="Контур 277" d="M8,106.537H97.628V54.1H8ZM83.411,83.461V58.633h9.581V101.9H67.546V58.633H78.878V83.461ZM62.91,58.633V101.9H12.533V58.633Z" transform="translate(0.242 1.634)" fill="#0001d7"/>
    <path id="Контур_278" data-name="Контур 278" d="M97.869,50.686V22.252h8.139L97.045,0H8.963L0,22.252H8.139V50.583H97.869ZM69.436,46.05V14.114l3.3,8.139h20.5v23.8ZM70.569,4.533H93.955L99.209,17.72H75.823ZM6.8,17.72,12.053,4.533H63.873L58.619,17.72ZM12.775,46.05v-23.8H61.709l3.3-8.139V46.05Z" fill="#0001d7"/>
  </g>
  <g id="Сгруппировать_282" data-name="Сгруппировать 282" transform="translate(118.103 23.669)">
    <g id="Сгруппировать_281" data-name="Сгруппировать 281">
      <path id="Контур_279" data-name="Контур 279" d="M147.936,41.231V53.387h-6.593V47.515h-18.75v5.872H116V41.231h2.782c5.048-7.314,5.769-18.853,5.769-28.331h19.883V41.231Zm-21.531,0H137.84V19.184h-6.8C130.629,26.911,129.6,34.74,126.405,41.231Z" transform="translate(-116 -12.9)" fill="#0001d7"/>
      <path id="Контур_280" data-name="Контур 280" d="M178.725,36.9c0,6.078-3.915,10.611-11.538,10.611H154V12.9h12.362c6.593,0,10.611,4.533,10.611,9.89a8.871,8.871,0,0,1-3.091,6.49A8.073,8.073,0,0,1,178.725,36.9Zm-18.132-17.72v7.108h5.872a3.379,3.379,0,0,0,3.709-3.606,3.379,3.379,0,0,0-3.709-3.606h-5.872ZM171.926,36.9c0-2.472-1.648-4.327-4.739-4.327h-6.593v8.654h6.593C170.277,41.231,171.926,39.376,171.926,36.9Z" transform="translate(-114.852 -12.9)" fill="#0001d7"/>
      <path id="Контур_281" data-name="Контур 281" d="M207.664,19.184H185V12.9h22.664ZM206.119,33.3H185V27.014h21.119Zm1.854,7.933v6.284H185V41.231Z" transform="translate(-113.916 -12.9)" fill="#0001d7"/>
      <path id="Контур_282" data-name="Контур 282" d="M144.073,60.9V95.515H137.48V67.184H124.293V95.515H117.7V60.9Z" transform="translate(-115.949 -11.45)" fill="#0001d7"/>
      <path id="Контур_283" data-name="Контур 283" d="M183.785,78.216c0,9.89-6.8,17.616-16.792,17.616-9.89,0-16.792-7.726-16.792-17.616S157.1,60.6,166.992,60.6C176.985,60.6,183.785,68.327,183.785,78.216Zm-6.7,0c0-6.284-3.709-11.126-9.993-11.126S157,71.829,157,78.216c0,6.284,3.709,11.023,10.1,11.023C173.38,89.24,177.088,84.5,177.088,78.216Z" transform="translate(-114.967 -11.459)" fill="#0001d7"/>
      <path id="Контур_284" data-name="Контур 284" d="M213.737,84.807l5.975,2.988a16,16,0,0,1-14.32,8.139c-9.89,0-16.792-7.727-16.792-17.616S195.4,60.7,205.392,60.7a16,16,0,0,1,14.32,8.139l-5.975,2.988a9.575,9.575,0,0,0-8.448-4.533c-6.284,0-9.993,4.739-9.993,11.126,0,6.284,3.709,11.023,9.993,11.023A9.98,9.98,0,0,0,213.737,84.807Z" transform="translate(-113.807 -11.456)" fill="#0001d7"/>
      <path id="Контур_285" data-name="Контур 285" d="M250.131,84.08c0,6.284-4.327,11.332-12.156,11.332H225.2V60.9h6.593V72.747h6.181C245.8,72.747,250.131,77.8,250.131,84.08Zm-6.9,0c0-2.988-2.06-5.048-5.357-5.048h-6.078v10.2h6.078A4.977,4.977,0,0,0,243.229,84.08Zm16.9-23.18V95.515h-6.593V60.9Z" transform="translate(-112.702 -11.45)" fill="#0001d7"/>
      <path id="Контур_286" data-name="Контур 286" d="M294.255,60.9V95.515h-6.593V67.184h-7.933c0,11.229-.412,22.664-5.666,26.682a11.268,11.268,0,0,1-8.963,1.854l1.133-6.593c1.957.412,3.194,0,3.709-.515,4.018-3.4,3.3-16.483,3.3-27.712Z" transform="translate(-111.497 -11.45)" fill="#0001d7"/>
      <path id="Контур_287" data-name="Контур 287" d="M311.181,81.4l-2.987,3.606V95.515H301.6V60.9h6.593V74.808L319.938,60.9h8.654L315.611,76.25l13.7,19.265h-8.036Z" transform="translate(-110.394 -11.45)" fill="#0001d7"/>
      <path id="Контур_288" data-name="Контур 288" d="M361.079,60.9V95.515h-6.593V73.056l-13.6,22.458H334.5V60.9h6.593V83.358l13.6-22.458h6.387Z" transform="translate(-109.401 -11.45)" fill="#0001d7"/>
    </g>
  </g>
</svg>
