<svg id="Сгруппировать_283" data-name="Сгруппировать 283" xmlns="http://www.w3.org/2000/svg" width="171.5" height="50.169" viewBox="0 0 171.5 50.169">
  <g id="Сгруппировать_280" data-name="Сгруппировать 280">
    <path id="Контур_277" data-name="Контур 277" d="M8,78.42H49.568V54.1H8Zm34.975-10.7V56.2h4.443V76.27h-11.8V56.2h5.256V67.717ZM33.466,56.2V76.27H10.1V56.2Z" transform="translate(-4.178 -28.251)" fill="#fff"/>
    <path id="Контур_278" data-name="Контур 278" d="M45.391,23.508V10.32h3.775L45.008,0H4.157L0,10.32H3.775V23.46H45.391ZM32.2,21.357V6.546l1.529,3.775H43.24V21.357ZM32.729,2.1H43.575l2.437,6.116H35.166ZM3.153,8.218,5.59,2.1H29.623L27.187,8.218ZM5.925,21.357V10.32h22.7l1.529-3.775V21.357Z" fill="#fff"/>
  </g>
  <g id="Сгруппировать_282" data-name="Сгруппировать 282" transform="translate(54.775 10.977)">
    <g id="Сгруппировать_281" data-name="Сгруппировать 281">
      <path id="Контур_279" data-name="Контур 279" d="M130.812,26.039v5.638h-3.058V28.954h-8.7v2.723H116V26.039h1.29c2.341-3.392,2.676-8.744,2.676-13.139h9.221V26.039Zm-9.986,0h5.3V15.815h-3.153C122.785,19.4,122.307,23.029,120.826,26.039Z" transform="translate(-116 -12.9)" fill="#fff"/>
      <path id="Контур_280" data-name="Контур 280" d="M165.467,24.033c0,2.819-1.816,4.921-5.351,4.921H154V12.9h5.734a4.588,4.588,0,0,1,4.921,4.587,4.114,4.114,0,0,1-1.433,3.01A3.744,3.744,0,0,1,165.467,24.033Zm-8.409-8.218v3.3h2.723a1.567,1.567,0,0,0,1.72-1.672,1.567,1.567,0,0,0-1.72-1.672h-2.723Zm5.256,8.218a1.963,1.963,0,0,0-2.2-2.007h-3.058v4.013h3.058A1.963,1.963,0,0,0,162.314,24.033Z" transform="translate(-135.844 -12.9)" fill="#fff"/>
      <path id="Контур_281" data-name="Контур 281" d="M195.511,15.815H185V12.9h10.511Zm-.717,6.546H185V19.446h9.795Zm.86,3.679v2.915H185V26.039Z" transform="translate(-152.032 -12.9)" fill="#fff"/>
      <path id="Контур_282" data-name="Контур 282" d="M129.932,60.9V76.954h-3.058V63.815h-6.116V76.954H117.7V60.9Z" transform="translate(-116.888 -37.966)" fill="#fff"/>
      <path id="Контур_283" data-name="Контур 283" d="M165.776,68.77c0,4.587-3.153,8.17-7.788,8.17-4.587,0-7.788-3.583-7.788-8.17s3.2-8.17,7.788-8.17C162.623,60.6,165.776,64.183,165.776,68.77Zm-3.106,0c0-2.915-1.72-5.16-4.635-5.16s-4.682,2.2-4.682,5.16c0,2.915,1.72,5.112,4.682,5.112C160.95,73.883,162.67,71.685,162.67,68.77Z" transform="translate(-133.859 -37.809)" fill="#fff"/>
      <path id="Контур_284" data-name="Контур 284" d="M200.258,71.88l2.771,1.386a7.42,7.42,0,0,1-6.641,3.775c-4.587,0-7.788-3.583-7.788-8.17s3.153-8.17,7.788-8.17a7.42,7.42,0,0,1,6.641,3.775l-2.771,1.386a4.441,4.441,0,0,0-3.918-2.1c-2.915,0-4.635,2.2-4.635,5.16,0,2.915,1.72,5.112,4.635,5.112A4.629,4.629,0,0,0,200.258,71.88Z" transform="translate(-153.912 -37.861)" fill="#fff"/>
      <path id="Контур_285" data-name="Контур 285" d="M236.763,71.65c0,2.915-2.007,5.256-5.638,5.256H225.2V60.9h3.058v5.495h2.867C234.756,66.395,236.763,68.736,236.763,71.65Zm-3.2,0a2.273,2.273,0,0,0-2.485-2.341h-2.819v4.73h2.819A2.308,2.308,0,0,0,233.561,71.65ZM241.4,60.9V76.954h-3.058V60.9Z" transform="translate(-173.025 -37.966)" fill="#fff"/>
      <path id="Контур_286" data-name="Контур 286" d="M278.622,60.9V76.954h-3.058V63.815h-3.679c0,5.208-.191,10.511-2.628,12.375a5.226,5.226,0,0,1-4.157.86l.526-3.058a1.919,1.919,0,0,0,1.72-.239c1.863-1.577,1.529-7.645,1.529-12.853Z" transform="translate(-193.861 -37.966)" fill="#fff"/>
      <path id="Контур_287" data-name="Контур 287" d="M306.043,70.408l-1.386,1.672v4.874H301.6V60.9h3.058v6.45L310.1,60.9h4.014l-6.02,7.119,6.355,8.935h-3.727Z" transform="translate(-212.921 -37.966)" fill="#fff"/>
      <path id="Контур_288" data-name="Контур 288" d="M346.827,60.9V76.954h-3.058V66.538l-6.307,10.416H334.5V60.9h3.058V71.316L343.865,60.9h2.962Z" transform="translate(-230.102 -37.966)" fill="#fff"/>
    </g>
  </g>
</svg>
