<svg xmlns="http://www.w3.org/2000/svg" width="322.049" height="108.172" viewBox="0 0 322.049 108.172">
  <g id="Сгруппировать_602" data-name="Сгруппировать 602" transform="translate(439.225 -332.514)">
    <g id="Сгруппировать_280" data-name="Сгруппировать 280" transform="translate(-308.139 332.514)">
      <path id="Контур_277" data-name="Контур 277" d="M8,103.585H92.582V54.1H8ZM79.166,81.808V58.378h9.042V99.21H64.194V58.378H74.888v23.43ZM59.819,58.378V99.21H12.278V58.378Z" transform="translate(-8 -54.1)" fill="#0001d7"/>
      <path id="Контур_278" data-name="Контур 278" d="M92.36,47.833V21h7.68L91.582,0H8.458L0,21H7.68V47.735H92.36ZM65.527,43.458V13.319L68.638,21H87.985V43.458ZM66.6,4.278H88.665l4.958,12.444H71.555ZM6.417,16.722,11.375,4.278h48.9L55.319,16.722Zm5.639,26.736V21h46.18l3.111-7.68V43.458Z" transform="translate(90.922 0.755)" fill="#0001d7"/>
    </g>
    <g id="Сгруппировать_282" data-name="Сгруппировать 282" transform="translate(-439.225 336.141)">
      <g id="Сгруппировать_281" data-name="Сгруппировать 281">
        <path id="Контур_279" data-name="Контур 279" d="M155.511,47.95V62.99h-8.157V55.725h-23.2V62.99H116V47.95h3.441c6.245-9.049,7.137-23.324,7.137-35.05h24.6V47.95Zm-26.638,0H143.02V20.675h-8.412C134.1,30.234,132.824,39.92,128.873,47.95Z" transform="translate(-116 -12.9)" fill="#0001d7"/>
        <path id="Контур_280" data-name="Контур 280" d="M184.589,42.6c0,7.52-4.843,13.128-14.275,13.128H154V12.9h15.295c8.157,0,13.128,5.608,13.128,12.236a10.976,10.976,0,0,1-3.824,8.03A9.987,9.987,0,0,1,184.589,42.6ZM162.157,20.675v8.794h7.265c3.186,0,4.588-2.039,4.588-4.461s-1.4-4.461-4.588-4.461h-7.265ZM176.177,42.6c0-3.059-2.039-5.353-5.863-5.353h-8.157V47.95h8.157C174.138,47.95,176.177,45.656,176.177,42.6Z" transform="translate(-105.567 -12.9)" fill="#0001d7"/>
        <path id="Контур_281" data-name="Контур 281" d="M213.04,20.675H185V12.9h28.04Zm-1.912,17.461H185V30.361h26.128Zm2.294,9.814v7.775H185V47.95Z" transform="translate(-97.056 -12.9)" fill="#0001d7"/>
        <path id="Контур_282" data-name="Контур 282" d="M150.328,60.9v42.825h-8.157V68.675H125.857v35.05H117.7V60.9Z" transform="translate(-115.533 0.278)" fill="#0001d7"/>
        <path id="Контур_283" data-name="Контур 283" d="M191.75,82.395c0,12.236-8.412,21.795-20.775,21.795-12.236,0-20.775-9.559-20.775-21.795S158.739,60.6,170.975,60.6C183.338,60.6,191.75,70.159,191.75,82.395Zm-8.285,0c0-7.775-4.588-13.765-12.363-13.765s-12.491,5.863-12.491,13.765c0,7.775,4.588,13.638,12.491,13.638C178.877,96.032,183.466,90.17,183.466,82.395Z" transform="translate(-106.61 0.196)" fill="#0001d7"/>
        <path id="Контур_284" data-name="Контур 284" d="M219.7,90.524l7.392,3.7a19.794,19.794,0,0,1-17.716,10.069c-12.236,0-20.775-9.559-20.775-21.795S197.012,60.7,209.375,60.7a19.794,19.794,0,0,1,17.716,10.069l-7.392,3.7a11.846,11.846,0,0,0-10.451-5.608c-7.775,0-12.363,5.863-12.363,13.765,0,7.775,4.588,13.638,12.363,13.638C214.091,96.005,217.532,93.966,219.7,90.524Z" transform="translate(-96.068 0.223)" fill="#0001d7"/>
        <path id="Контур_285" data-name="Контур 285" d="M256.044,89.577c0,7.775-5.353,14.02-15.04,14.02H225.2V60.9h8.157V75.557H241C250.691,75.557,256.044,81.8,256.044,89.577Zm-8.539,0c0-3.7-2.549-6.245-6.628-6.245h-7.52V95.95h7.52C244.955,95.95,247.5,93.274,247.5,89.577Zm20.9-28.677v42.825H260.25V60.9Z" transform="translate(-86.019 0.278)" fill="#0001d7"/>
        <path id="Контур_286" data-name="Контур 286" d="M301.17,60.9v42.825h-8.157V68.675H283.2c0,13.893-.51,28.04-7.01,33.011A13.941,13.941,0,0,1,265.1,103.98l1.4-8.157c2.422.51,3.951,0,4.588-.637,4.971-4.206,4.079-20.393,4.079-34.285Z" transform="translate(-75.065 0.278)" fill="#0001d7"/>
        <path id="Контур_287" data-name="Контур 287" d="M313.453,86.264l-3.7,4.461v13H301.6V60.9h8.157V78.106L324.287,60.9h10.706L318.934,79.891l16.952,23.834h-9.942Z" transform="translate(-65.044 0.278)" fill="#0001d7"/>
        <path id="Контур_288" data-name="Контур 288" d="M367.383,60.9v42.825h-8.157V75.94L342.4,103.725h-7.9V60.9h8.157V88.685L359.481,60.9h7.9Z" transform="translate(-56.011 0.278)" fill="#0001d7"/>
      </g>
    </g>
  </g>
</svg>

